<?xml version="1.0" standalone="no"?>
<!DOCTYPE svg PUBLIC "-//W3C//DTD SVG 20010904//EN"
 "http://www.w3.org/TR/2001/REC-SVG-20010904/DTD/svg10.dtd">
<svg version="1.0" xmlns="http://www.w3.org/2000/svg"
 width="16.000000pt" height="16.000000pt" viewBox="0 0 16.000000 16.000000"
 preserveAspectRatio="xMidYMid meet">
<metadata>
Created by potrace 1.11, written by Peter Selinger 2001-2013
</metadata>
<g transform="translate(0.000000,16.000000) scale(0.002225,-0.002225)"
fill="#000000" stroke="none">
<path d="M853 7135 c-413 -75 -726 -389 -798 -804 -22 -126 -22 -5386 0 -5512
72 -413 371 -712 784 -784 126 -22 5386 -22 5512 0 210 36 380 124 530 274
154 155 249 343 278 555 15 109 15 5353 0 5462 -50 361 -291 654 -634 771
-164 56 -11 53 -2919 52 -2153 -1 -2695 -3 -2753 -14z m3012 -965 c541 -47
970 -243 1306 -597 322 -341 514 -780 585 -1335 10 -79 17 -249 21 -475 l6
-353 -1863 0 -1862 0 7 -62 c35 -344 96 -579 206 -802 77 -155 152 -260 278
-387 247 -249 511 -372 946 -441 124 -19 568 -16 740 6 427 54 792 163 1193
356 l162 79 -2 -380 -3 -381 -69 -29 c-851 -363 -1857 -458 -2611 -247 -898
251 -1507 961 -1649 1923 -72 487 -34 1062 100 1502 235 777 791 1336 1530
1538 296 81 656 112 979 85z"/>
<path d="M3415 5480 c-123 -14 -240 -39 -351 -75 -354 -115 -632 -356 -799
-693 -80 -162 -152 -415 -171 -603 l-7 -69 1442 0 1441 0 0 39 c0 70 -21 244
-41 346 -70 347 -259 651 -521 838 -133 95 -304 166 -488 202 -101 20 -388 28
-505 15z"/>
</g>
</svg>
